[img]http://img849.imageshack.us/img849/516/thepossesion.jpg[/img]

[b][size=200][color=black]PLOT[/color][/size][/b]

[code]A young girl buys an antique box at a yard sale, unaware 
that inside the collectible lives a malicious ancient spirit.
The girl's father teams with his ex-wife to find a way to end 
the curse upon their child.[/code]

[b][size=200][color=black]IMDB[/color][/size][/b]

[code]http://www.imdb.com/title/tt0431021/[/code]

[b][size=200][color=black]MOVIE INFO[/color][/size][/b]

[code]The Possession [2012] BRRip x264 AAC-V3nom

Format                                   : MPEG-4
Format profile                           : Base Media / Version 2
Codec ID                                 : mp42
File size                                : 349 MiB
Duration                                 : 1h 32mn
Overall bit rate mode                    : Variable
Overall bit rate                         : 529 Kbps
Encoded date                             : UTC 2013-01-03 18:28:14
Tagged date                              : UTC 2013-01-03 18:58:46

Video
ID                                       : 1
Format                                   : AVC
Format/Info                              : Advanced Video Codec
Format profile                           : Main@L2.1
Format settings, CABAC                   : Yes
Format settings, ReFrames                : 4 frames
Codec ID                                 : avc1
Codec ID/Info                            : Advanced Video Coding
Duration                                 : 1h 32mn
Bit rate mode                            : Variable
Bit rate                                 : 399 Kbps
Width                                    : 640 pixels
Height                                   : 272 pixels
Display aspect ratio                     : 2.40:1
Original display aspect ratio            : 2.40:1
Frame rate mode                          : Variable
Frame rate                               : 23.976 fps
Minimum frame rate                       : 5.994 fps
Maximum frame rate                       : 23.981 fps
Color space                              : YUV
Chroma subsampling                       : 4:2:0
Bit depth                                : 8 bits
Scan type                                : Progressive
Bits/(Pixel*Frame)                       : 0.096
Stream size                              : 262 MiB (75%)
Writing library                          : x264 core 112

Audio
ID                                       : 2
Format                                   : AAC
Format/Info                              : Advanced Audio Codec
Format profile                           : LC
Codec ID                                 : 40
Duration                                 : 1h 32mn
Bit rate mode                            : Variable
Bit rate                                 : 128 Kbps
Maximum bit rate                         : 218 Kbps
Channel(s)                               : 2 channels
Channel positions                        : Front: L R
Sampling rate                            : 48.0 KHz
Compression mode                         : Lossy
Delay relative to video                  : 209ms
Stream size                              : 84.3 MiB (24%)
Language                                 : English
Encoded date                             : UTC 2013-01-03 18:28:14
Tagged date                              : UTC 2013-01-03 18:58:42[/code]

[b][size=200][color=black]SOURCE[/color][/size][/b]

[code]The Possession (2012) 720p BrRip x264 - YIFY(Thanks)[/code]

[b][size=200][color=black]SCREENSHOTS[/color][/size][/b]

[img]http://img826.imageshack.us/img826/4804/thepossession2012brripx.jpg[/img]

[img]http://kastatic.com/i2/users/133df62bbf28e62494bb17fe11078f1a.gif[/img][img]http://kastatic.com/i2/users/133df62bbf28e62494bb17fe11078f1a.gif[/img]